# xmcd
#
# Track frame offsets:
# 150
# 20393
# 43077
#
# Disc length: 828 seconds
#
# Revision: 0
# Processed by: cddbd v1.4PL0 Copyright (c) Steve Scherf et al.
# Submitted via: Audion 2.6.0 (http://www.panic.com/audion/)
#
DISCID=1c033a03
DTITLE=Othello - Othello
DYEAR=1900
DGENRE=
TTITLE0=1
TTITLE1=2
TTITLE2=3
EXTD=
EXTT0=
EXTT1=
EXTT2=
PLAYORDER=
